<?xml version="1.0" encoding="utf-8"?>
<!-- Generator: Adobe Illustrator 25.2.1, SVG Export Plug-In . SVG Version: 6.00 Build 0)  -->
<svg version="1.1" id="Layer_1" xmlns="http://www.w3.org/2000/svg" xmlns:xlink="http://www.w3.org/1999/xlink" x="0px" y="0px" width="40px" height="40px"
	 viewBox="0 0 61 61" style="enable-background:new 0 0 61 61;" xml:space="preserve">
<style type="text/css">
	.st0{fill:#E9EAEB;stroke:#2A5082;stroke-width:2;stroke-miterlimit:10;}
	.st1{fill:#FFFFFF;stroke:#2A5082;stroke-width:2;stroke-miterlimit:10;}
	.st2{fill:#00AEFF;stroke:#2A5082;stroke-width:2;stroke-miterlimit:10;}
	.st3{fill:none;stroke:#2A5082;stroke-width:2;stroke-miterlimit:10;}
</style>
<g>
	<path class="st0" d="M54,45V26.28c0-1.15-0.6-2.3-1.45-2.98L33.92,6.53c-2.23-2.01-5.61-2.01-7.84,0L7.45,23.3
		C6.6,23.98,6,25.13,6,26.28V45H54z"/>
	<rect x="13" y="12" class="st1" width="34" height="32"/>
	<path class="st2" d="M53,28c-2.18,1.75-14.16,11.66-15.43,12.4C36.19,41.2,33.3,42,30,42c-3.3,0-6.19-0.8-7.57-1.6
		C21.16,39.66,9.18,29.75,7,28H6v24c0,1.66,1.34,3,3,3h21h21c1.66,0,3-1.34,3-3V28H53z"/>
	<line class="st3" x1="20.94" y1="39.3" x2="10" y2="51"/>
	<line class="st3" x1="39.03" y1="39.3" x2="49.97" y2="51"/>
	<line class="st3" x1="20" y1="22" x2="39" y2="22"/>
	<line class="st3" x1="20" y1="26" x2="39" y2="26"/>
	<line class="st3" x1="20" y1="30" x2="33" y2="30"/>
</g>
</svg>
