<?xml version="1.0" encoding="utf-8"?>
<!-- Generator: Adobe Illustrator 25.2.1, SVG Export Plug-In . SVG Version: 6.00 Build 0)  -->
<svg version="1.1" id="Layer_1" xmlns="http://www.w3.org/2000/svg" xmlns:xlink="http://www.w3.org/1999/xlink" x="0px" y="0px"
	 viewBox="0 0 61 55" style="enable-background:new 0 0 61 55;" xml:space="preserve">
<style type="text/css">
	.st0{fill:#E9EAEB;}
	.st1{fill:#A3D4FF;}
	.st2{fill:none;stroke:#2A5082;stroke-width:2;stroke-miterlimit:10;}
	.st3{fill:#FFFFFF;stroke:#2A5082;stroke-width:2;stroke-miterlimit:10;}
</style>
<g>
	
		<ellipse transform="matrix(0.7071 -0.7071 0.7071 0.7071 -10.2193 30.3284)" class="st0" cx="31.5" cy="27.5" rx="27.5" ry="27.5"/>
	<path class="st1" d="M57,20H46v13c0,1.66-1.34,3-3,3H26v6c0,1.66,1.34,3,3,3h18.06l5.11,7.61c0.55,0.82,1.83,0.43,1.83-0.56V45h3
		c1.66,0,3-1.34,3-3V23C60,21.34,58.66,20,57,20z"/>
	<path class="st2" d="M47,20h10c1.66,0,3,1.34,3,3v19c0,1.66-1.34,3-3,3h-3v7.05c0,0.99-1.28,1.38-1.83,0.56L47.06,45H29
		c-1.66,0-3-1.34-3-3v-6"/>
	<path class="st3" d="M1,10v23c0,1.66,1.34,3,3,3h4v10.82c0,0.94,1.17,1.36,1.77,0.64L19.23,36H43c1.66,0,3-1.34,3-3V10
		c0-1.66-1.34-3-3-3H4C2.34,7,1,8.34,1,10z"/>
	<path class="st2" d="M43,20H29c-1.66,0-3,1.34-3,3v10"/>
</g>
</svg>
