<?xml version="1.0" encoding="utf-8"?>
<!-- Generator: Adobe Illustrator 25.2.1, SVG Export Plug-In . SVG Version: 6.00 Build 0)  -->
<svg version="1.1" id="Layer_1" xmlns="http://www.w3.org/2000/svg" xmlns:xlink="http://www.w3.org/1999/xlink" x="0px" y="0px"
	 viewBox="0 0 60.64 58" style="enable-background:new 0 0 60.64 58;" xml:space="preserve">
<style type="text/css">
	.st0{fill:#E9EAEB;}
	.st1{fill:#FFFFFF;stroke:#2A5082;stroke-width:2;stroke-miterlimit:10;}
	.st2{fill:#A3D4FF;stroke:#2A5082;stroke-width:2;stroke-miterlimit:10;}
	.st3{fill:none;stroke:#2A5082;stroke-width:2;stroke-miterlimit:10;}
</style>
<g>
	<circle class="st0" cx="28.64" cy="33" r="25"/>
	<path class="st1" d="M59.64,4v16.05c0,1.63-1.32,2.95-2.95,2.95H40.51l-6.21,5.52c-0.64,0.57-1.66,0.12-1.66-0.75V23h-1.98
		c-1.66,0-3.02-1.36-3.02-3.02V4c0-1.66,1.34-3,3-3h26C58.29,1,59.64,2.34,59.64,4z"/>
	<path class="st2" d="M39.45,39.39c-3.11-2.85-8.3-5.08-12.23-5.25c-1.13,0.84-3.34,3.26-4.11,4.44c-2.27-0.9-4.82-3.5-7.11-6.28
		c-2.29-2.78-4.35-5.79-4.79-8.19c1.31-0.53,4.11-2.22,5.15-3.17c0.6-3.9-0.59-9.42-2.78-13.02C11.22,7.4,5.59,7.23,1.61,8.91
		c-1.41,4.98-1.08,15.44,8.85,27.95c10.36,12.16,20.55,14.51,25.72,14.08C38.59,47.36,39.51,41.8,39.45,39.39z"/>
	<line class="st3" x1="38.64" y1="12" x2="40.64" y2="12"/>
	<line class="st3" x1="42.64" y1="12" x2="44.64" y2="12"/>
	<line class="st3" x1="46.64" y1="12" x2="48.64" y2="12"/>
</g>
</svg>
