<svg id="Layer_1" data-name="Layer 1" xmlns="http://www.w3.org/2000/svg" viewBox="0 0 38 26"><defs><style>.cls-1{fill:#dff0fe;}.cls-2{fill:#4788c7;}</style></defs><path class="cls-1" d="M1.5,17.5h37v5H1.5Z" transform="translate(-1 -7)"/><path class="cls-2" d="M38,18v4H2V18H38m1-1H1v6H39V17Z" transform="translate(-1 -7)"/><path class="cls-1" d="M1.5,7.5h37v5H1.5Z" transform="translate(-1 -7)"/><path class="cls-2" d="M38,8v4H2V8H38m1-1H1v6H39V7Z" transform="translate(-1 -7)"/><path class="cls-1" d="M1.5,27.5h37v5H1.5Z" transform="translate(-1 -7)"/><path class="cls-2" d="M38,28v4H2V28H38m1-1H1v6H39V27Z" transform="translate(-1 -7)"/></svg>