<?xml version="1.0" encoding="utf-8"?>
<!-- Generator: Adobe Illustrator 25.2.1, SVG Export Plug-In . SVG Version: 6.00 Build 0)  -->
<svg version="1.1" id="Layer_1" xmlns="http://www.w3.org/2000/svg" xmlns:xlink="http://www.w3.org/1999/xlink" x="0px" y="0px" width="40px" height="40px"
	 viewBox="0 0 421.88 421.88" style="enable-background:new 0 0 421.88 421.88;" xml:space="preserve">
<style type="text/css">
	.st0{fill:#00AEFF;}
</style>
<g>
	<g>
		<g>
			<path class="st0" d="M283.45,369.14H138.43c-47.25,0-85.69-38.44-85.69-85.69V138.43c0-47.25,38.44-85.69,85.69-85.69h145.02
				c47.25,0,85.69,38.44,85.69,85.69v145.02C369.14,330.7,330.7,369.14,283.45,369.14z M138.43,79.1
				c-32.72,0-59.33,26.62-59.33,59.33v145.02c0,32.72,26.61,59.33,59.33,59.33h145.02c32.71,0,59.33-26.61,59.33-59.33V138.43
				c0-32.71-26.62-59.33-59.33-59.33H138.43z"/>
		</g>
		<g>
			<path class="st0" d="M210.94,290.04c-43.61,0-79.1-35.49-79.1-79.1c0-43.61,35.49-79.1,79.1-79.1s79.1,35.49,79.1,79.1
				C290.04,254.55,254.55,290.04,210.94,290.04z M210.94,158.2c-29.08,0-52.73,23.66-52.73,52.73c0,29.08,23.66,52.73,52.73,52.73
				c29.08,0,52.73-23.66,52.73-52.73C263.67,181.86,240.02,158.2,210.94,158.2z"/>
		</g>
		<g>
			<path class="st0" d="M294.98,108.76c10.01,0,18.13,8.11,18.13,18.13c0,10.01-8.11,18.13-18.13,18.13
				c-10.01,0-18.13-8.11-18.13-18.13C276.86,116.88,284.97,108.76,294.98,108.76z"/>
		</g>
	</g>
</g>
</svg>
