<?xml version="1.0" encoding="utf-8"?>
<!-- Generator: Adobe Illustrator 25.2.1, SVG Export Plug-In . SVG Version: 6.00 Build 0)  -->
<svg version="1.1" id="Layer_1" xmlns="http://www.w3.org/2000/svg" xmlns:xlink="http://www.w3.org/1999/xlink" x="0px" y="0px" width="40px" height="40px"
	 viewBox="0 0 421.88 421.88" style="enable-background:new 0 0 421.88 421.88;" xml:space="preserve">
<style type="text/css">
	.st0{fill:#00AEFF;}
</style>
<g>
	<g>
		<path class="st0" d="M128.2,359.47H65.56V158.15h62.63V359.47z M96.9,130.65c-20.11,0-36.31-16.26-36.31-36.29
			c0-20.04,16.22-36.29,36.31-36.29c20.02,0,36.27,16.26,36.27,36.29S116.91,130.65,96.9,130.65z M362.55,359.47H300v-97.9
			c0-23.35-0.41-53.38-32.53-53.38c-32.55,0-37.52,25.44-37.52,51.7v99.58h-62.5V158.15h59.98v27.52h0.86
			c8.36-15.83,28.77-32.51,59.21-32.51c63.35,0,75.05,41.69,75.05,95.9V359.47z"/>
	</g>
</g>
</svg>
