<?xml version="1.0" encoding="utf-8"?>
<!-- Generator: Adobe Illustrator 25.2.1, SVG Export Plug-In . SVG Version: 6.00 Build 0)  -->
<svg version="1.1" id="Layer_1" xmlns="http://www.w3.org/2000/svg" xmlns:xlink="http://www.w3.org/1999/xlink" x="0px" y="0px" width="40px" height="40px"
	 viewBox="0 0 60.64 58" style="enable-background:new 0 0 60.64 58;" xml:space="preserve">
<style type="text/css">
	.st0{fill:#00AEFF;stroke:#2A5082;stroke-width:2;stroke-miterlimit:10;}
</style>
<g>
	<path class="st0" d="M51.45,39.39c-3.11-2.85-8.3-5.08-12.23-5.25c-1.13,0.84-3.34,3.26-4.11,4.44c-2.27-0.9-4.82-3.5-7.11-6.28
		c-2.29-2.78-4.35-5.79-4.79-8.19c1.31-0.53,4.11-2.22,5.15-3.17c0.6-3.9-0.59-9.42-2.78-13.02c-2.36-0.52-7.99-0.7-11.97,0.98
		c-1.41,4.98-1.08,15.44,8.85,27.95c10.36,12.16,20.55,14.51,25.72,14.08C50.59,47.36,51.51,41.8,51.45,39.39z"/>
</g>
</svg>
