<?xml version="1.0" encoding="utf-8"?>
<!-- Generator: Adobe Illustrator 25.2.1, SVG Export Plug-In . SVG Version: 6.00 Build 0)  -->
<svg version="1.1" id="Layer_1" xmlns="http://www.w3.org/2000/svg" xmlns:xlink="http://www.w3.org/1999/xlink" x="0px" y="0px" width="40px" height="40px"
	 viewBox="0 0 421.88 421.88" style="enable-background:new 0 0 421.88 421.88;" xml:space="preserve">
<style type="text/css">
	.st0{fill:#00AEFF;}
</style>
<g>
	<path class="st0" d="M353.05,133.39c0,0-2.82-28.99-11.51-41.76c-11.05-16.77-23.39-16.84-29.07-17.83
		c-40.58-4.27-101.46-4.27-101.46-4.27h-0.14c0,0-60.88,0-101.46,4.27c-5.68,0.98-18.04,1.06-29.07,17.83
		c-8.7,12.77-11.54,41.76-11.54,41.76s-2.88,34.06-2.88,68.11v31.93c0,34.04,2.88,68.11,2.88,68.11s2.84,28.99,11.54,41.76
		c11.03,16.77,25.52,16.22,31.98,18c23.21,3.24,98.62,4.22,98.62,4.22s60.95-0.13,101.53-4.38c5.68-0.98,18.04-1.06,29.07-17.83
		c8.7-12.77,11.54-41.76,11.54-41.76s2.88-34.06,2.88-68.11v-31.93C355.96,167.45,353.05,133.39,353.05,133.39 M177.32,277.64
		V148.35l85.69,64.86L177.32,277.64z"/>
</g>
</svg>
